{
  "accessors": [
    {
      "bufferView": 2,
      "componentType": 5126,
      "count": 65532,
      "max": [
        156.02960205078125,
        60.74770736694336,
        120.30996704101563
      ],
      "min": [
        -120.9030990600586,
        10.917377471923828,
        -156.41351318359375
      ],
      "type": "VEC3"
    },
    {
      "bufferView": 2,
      "byteOffset": 786384,
      "componentType": 5126,
      "count": 65532,
      "max": [
        0.9999973177909851,
        0.999980092048645,
        0.9999978542327881
      ],
      "min": [
        -0.9999971985816956,
        -0.9999995231628418,
        -0.9999915361404419
      ],
      "type": "VEC3"
    },
    {
      "bufferView": 1,
      "componentType": 5126,
      "count": 65532,
      "max": [
        0.9987850189208984,
        0.9980090260505676
      ],
      "min": [
        0.0019630000460892916,
        0.0015849999617785215
      ],
      "type": "VEC2"
    },
    {
      "bufferView": 0,
      "componentType": 5125,
      "count": 201555,
      "type": "SCALAR"
    },
    {
      "bufferView": 2,
      "byteOffset": 1572768,
      "componentType": 5126,
      "count": 57808,
      "max": [
        155.98788452148438,
        60.74770736694336,
        120.30996704101563
      ],
      "min": [
        -120.98240661621094,
        34.23301696777344,
        -156.20074462890625
      ],
      "type": "VEC3"
    },
    {
      "bufferView": 2,
      "byteOffset": 2266464,
      "componentType": 5126,
      "count": 57808,
      "max": [
        0.9999970197677612,
        0.9999781847000122,
        0.9999945759773254
      ],
      "min": [
        -0.9999909400939941,
        -0.9999998211860657,
        -0.9999915361404419
      ],
      "type": "VEC3"
    },
    {
      "bufferView": 1,
      "byteOffset": 524256,
      "componentType": 5126,
      "count": 57808,
      "max": [
        0.9985870122909546,
        0.9980419874191284
      ],
      "min": [
        0.0019529999699443579,
        0.0024999999441206455
      ],
      "type": "VEC2"
    },
    {
      "bufferView": 0,
      "byteOffset": 806220,
      "componentType": 5125,
      "count": 166842,
      "type": "SCALAR"
    },
    {
      "bufferView": 2,
      "byteOffset": 2960160,
      "componentType": 5126,
      "count": 65532,
      "max": [
        156.0340576171875,
        59.91141891479492,
        120.38623046875
      ],
      "min": [
        -121.01811981201172,
        10.917377471923828,
        -156.1875762939453
      ],
      "type": "VEC3"
    },
    {
      "bufferView": 2,
      "byteOffset": 3746544,
      "componentType": 5126,
      "count": 65532,
      "max": [
        0.9999995827674866,
        0.9269422888755798,
        0.9999998807907104
      ],
      "min": [
        -0.9999984502792358,
        -0.9999997019767761,
        -0.9999985694885254
      ],
      "type": "VEC3"
    },
    {
      "bufferView": 1,
      "byteOffset": 986720,
      "componentType": 5126,
      "count": 65532,
      "max": [
        0.9989320039749146,
        0.9980229735374451
      ],
      "min": [
        0.0019729998894035816,
        0.01384000014513731
      ],
      "type": "VEC2"
    },
    {
      "bufferView": 0,
      "byteOffset": 1473588,
      "componentType": 5125,
      "count": 240924,
      "type": "SCALAR"
    },
    {
      "bufferView": 2,
      "byteOffset": 4532928,
      "componentType": 5126,
      "count": 27851,
      "max": [
        155.91632080078125,
        59.54274368286133,
        120.38623046875
      ],
      "min": [
        -120.82124328613281,
        35.753173828125,
        -156.14964294433594
      ],
      "type": "VEC3"
    },
    {
      "bufferView": 2,
      "byteOffset": 4867140,
      "componentType": 5126,
      "count": 27851,
      "max": [
        0.9999974370002747,
        0.9964535236358643,
        0.9999998807907104
      ],
      "min": [
        -0.9999971985816956,
        -0.9999998807907104,
        -0.999995231628418
      ],
      "type": "VEC3"
    },
    {
      "bufferView": 1,
      "byteOffset": 1510976,
      "componentType": 5126,
      "count": 27851,
      "max": [
        0.9985960125923157,
        0.9980340003967285
      ],
      "min": [
        0.0020469999872148037,
        0.014316000044345856
      ],
      "type": "VEC2"
    },
    {
      "bufferView": 0,
      "byteOffset": 2437284,
      "componentType": 5125,
      "count": 103491,
      "type": "SCALAR"
    },
    {
      "bufferView": 2,
      "byteOffset": 5201352,
      "componentType": 5126,
      "count": 52127,
      "max": [
        156.0414276123047,
        59.72541809082031,
        120.38623046875
      ],
      "min": [
        -120.81414794921875,
        13.040051460266113,
        -155.51400756835938
      ],
      "type": "VEC3"
    },
    {
      "bufferView": 2,
      "byteOffset": 5826876,
      "componentType": 5126,
      "count": 52127,
      "max": [
        0.9999984502792358,
        0.9923853278160095,
        0.9999974966049194
      ],
      "min": [
        -0.9999998211860657,
        -0.9999998807907104,
        -0.999998152256012
      ],
      "type": "VEC3"
    },
    {
      "bufferView": 1,
      "byteOffset": 1733784,
      "componentType": 5126,
      "count": 52127,
      "max": [
        0.9987469911575317,
        0.9980329871177673
      ],
      "min": [
        0.001990000018849969,
        0.004712000023573637
      ],
      "type": "VEC2"
    },
    {
      "bufferView": 0,
      "byteOffset": 2851248,
      "componentType": 5125,
      "count": 207021,
      "type": "SCALAR"
    },
    {
      "bufferView": 2,
      "byteOffset": 6452400,
      "componentType": 5126,
      "count": 1539,
      "max": [
        53.80534362792969,
        57.974037170410156,
        72.54421997070313
      ],
      "min": [
        -37.63180160522461,
        39.15839385986328,
        -42.2459602355957
      ],
      "type": "VEC3"
    },
    {
      "bufferView": 2,
      "byteOffset": 6470868,
      "componentType": 5126,
      "count": 1539,
      "max": [
        0.9999824166297913,
        0.796528697013855,
        0.9872942566871643
      ],
      "min": [
        -0.999999463558197,
        -0.9999997615814209,
        -0.9999538660049438
      ],
      "type": "VEC3"
    },
    {
      "bufferView": 1,
      "byteOffset": 2150800,
      "componentType": 5126,
      "count": 1539,
      "max": [
        0.9906790256500244,
        0.9921010136604309
      ],
      "min": [
        0.007945000194013119,
        0.011064999736845493
      ],
      "type": "VEC2"
    },
    {
      "bufferView": 0,
      "byteOffset": 3679332,
      "componentType": 5125,
      "count": 6579,
      "type": "SCALAR"
    },
    {
      "bufferView": 2,
      "byteOffset": 6489336,
      "componentType": 5126,
      "count": 109,
      "max": [
        13.134987831115723,
        57.58039474487305,
        25.78691291809082
      ],
      "min": [
        -3.8979909420013428,
        56.097965240478516,
        17.953969955444336
      ],
      "type": "VEC3"
    },
    {
      "bufferView": 2,
      "byteOffset": 6490644,
      "componentType": 5126,
      "count": 109,
      "max": [
        0.5155217051506042,
        -0.5756587982177734,
        0.8174008131027222
      ],
      "min": [
        -0.13104602694511414,
        -0.9999864101409912,
        -0.2810927629470825
      ],
      "type": "VEC3"
    },
    {
      "bufferView": 1,
      "byteOffset": 2163112,
      "componentType": 5126,
      "count": 109,
      "max": [
        0.5365570187568665,
        0.9841099977493286
      ],
      "min": [
        0.017806999385356903,
        0.4736799895763397
      ],
      "type": "VEC2"
    },
    {
      "bufferView": 0,
      "byteOffset": 3705648,
      "componentType": 5125,
      "count": 435,
      "type": "SCALAR"
    }
  ],
  "asset": {
    "extras": {
      "author": "JenkinsAerialGroup (https://sketchfab.com/JenkinsAerialGroup)",
      "license": "SKETCHFAB Standard (https://sketchfab.com/licenses)",
      "source": "https://sketchfab.com/3d-models/gibson-county-courthouse-indiana-c2f22cb6e7524b199245502f7a535909",
      "title": "Gibson County Courthouse, indiana"
    },
    "generator": "Sketchfab-16.65.0",
    "version": "2.0"
  },
  "bufferViews": [
    {
      "buffer": 0,
      "byteLength": 3707388,
      "name": "floatBufferViews",
      "target": 34963
    },
    {
      "buffer": 0,
      "byteLength": 2163984,
      "byteOffset": 3707388,
      "byteStride": 8,
      "name": "floatBufferViews",
      "target": 34962
    },
    {
      "buffer": 0,
      "byteLength": 6491952,
      "byteOffset": 5871372,
      "byteStride": 12,
      "name": "floatBufferViews",
      "target": 34962
    }
  ],
  "buffers": [
    {
      "byteLength": 12363324,
      "uri": "scene.bin"
    }
  ],
  "images": [
    {
      "uri": "textures/material_00_baseColor.jpeg"
    },
    {
      "uri": "textures/material_01_baseColor.jpeg"
    },
    {
      "uri": "textures/material_02_baseColor.jpeg"
    },
    {
      "uri": "textures/material_03_baseColor.jpeg"
    },
    {
      "uri": "textures/material_04_baseColor.jpeg"
    }
  ],
  "materials": [
    {
      "doubleSided": true,
      "name": "material_00",
      "pbrMetallicRoughness": {
        "baseColorTexture": {
          "index": 0
        },
        "metallicFactor": 0.0
      }
    },
    {
      "doubleSided": true,
      "name": "material_01",
      "pbrMetallicRoughness": {
        "baseColorTexture": {
          "index": 1
        },
        "metallicFactor": 0.0
      }
    },
    {
      "doubleSided": true,
      "name": "material_02",
      "pbrMetallicRoughness": {
        "baseColorTexture": {
          "index": 2
        },
        "metallicFactor": 0.0
      }
    },
    {
      "doubleSided": true,
      "name": "material_03",
      "pbrMetallicRoughness": {
        "baseColorTexture": {
          "index": 3
        },
        "metallicFactor": 0.0
      }
    },
    {
      "doubleSided": true,
      "name": "material_04",
      "pbrMetallicRoughness": {
        "baseColorTexture": {
          "index": 4
        },
        "metallicFactor": 0.0
      }
    }
  ],
  "meshes": [
    {
      "name": "Object_0",
      "primitives": [
        {
          "attributes": {
            "NORMAL": 1,
            "POSITION": 0,
            "TEXCOORD_0": 2
          },
          "indices": 3,
          "material": 0,
          "mode": 4
        }
      ]
    },
    {
      "name": "Object_1",
      "primitives": [
        {
          "attributes": {
            "NORMAL": 5,
            "POSITION": 4,
            "TEXCOORD_0": 6
          },
          "indices": 7,
          "material": 0,
          "mode": 4
        }
      ]
    },
    {
      "name": "Object_2",
      "primitives": [
        {
          "attributes": {
            "NORMAL": 9,
            "POSITION": 8,
            "TEXCOORD_0": 10
          },
          "indices": 11,
          "material": 1,
          "mode": 4
        }
      ]
    },
    {
      "name": "Object_3",
      "primitives": [
        {
          "attributes": {
            "NORMAL": 13,
            "POSITION": 12,
            "TEXCOORD_0": 14
          },
          "indices": 15,
          "material": 1,
          "mode": 4
        }
      ]
    },
    {
      "name": "Object_4",
      "primitives": [
        {
          "attributes": {
            "NORMAL": 17,
            "POSITION": 16,
            "TEXCOORD_0": 18
          },
          "indices": 19,
          "material": 2,
          "mode": 4
        }
      ]
    },
    {
      "name": "Object_5",
      "primitives": [
        {
          "attributes": {
            "NORMAL": 21,
            "POSITION": 20,
            "TEXCOORD_0": 22
          },
          "indices": 23,
          "material": 3,
          "mode": 4
        }
      ]
    },
    {
      "name": "Object_6",
      "primitives": [
        {
          "attributes": {
            "NORMAL": 25,
            "POSITION": 24,
            "TEXCOORD_0": 26
          },
          "indices": 27,
          "material": 4,
          "mode": 4
        }
      ]
    }
  ],
  "nodes": [
    {
      "children": [
        1
      ],
      "matrix": [
        1.0,
        -2.220446049250313e-16,
        6.123234262925834e-17,
        0.0,
        -2.220446049250313e-16,
        -1.0,
        -4.440892098500626e-16,
        0.0,
        6.123234262925839e-17,
        4.440892098500626e-16,
        -1.0,
        0.0,
        0.0,
        0.0,
        0.0,
        1.0
      ],
      "name": "Sketchfab_model"
    },
    {
      "children": [
        2,
        3,
        4,
        5,
        6,
        7,
        8
      ],
      "name": "scene_mesh_textured.obj.cleaner.materialmerger.gles"
    },
    {
      "mesh": 0,
      "name": "Object_2"
    },
    {
      "mesh": 1,
      "name": "Object_3"
    },
    {
      "mesh": 2,
      "name": "Object_4"
    },
    {
      "mesh": 3,
      "name": "Object_5"
    },
    {
      "mesh": 4,
      "name": "Object_6"
    },
    {
      "mesh": 5,
      "name": "Object_7"
    },
    {
      "mesh": 6,
      "name": "Object_8"
    }
  ],
  "samplers": [
    {
      "magFilter": 9729,
      "minFilter": 9987,
      "wrapS": 10497,
      "wrapT": 10497
    }
  ],
  "scene": 0,
  "scenes": [
    {
      "name": "Sketchfab_Scene",
      "nodes": [
        0
      ]
    }
  ],
  "textures": [
    {
      "sampler": 0,
      "source": 0
    },
    {
      "sampler": 0,
      "source": 1
    },
    {
      "sampler": 0,
      "source": 2
    },
    {
      "sampler": 0,
      "source": 3
    },
    {
      "sampler": 0,
      "source": 4
    }
  ]
}
